<svg width="51" height="51" viewBox="0 0 51 51" fill="none" xmlns="http://www.w3.org/2000/svg">
<path d="M0.333496 0.752441H7.47635V7.8953H0.333496V0.752441ZM14.6192 15.0382H7.47635V7.8953H14.6192V15.0382ZM21.7621 22.181H14.6192V15.0382H21.7621V22.181ZM28.9049 22.181H21.7621V29.3239H14.6192V36.4667H7.47635V43.6096H0.333496V50.7524H7.47635V43.6096H14.6192V36.4667H21.7621V29.3239H28.9049V36.4667H36.0478V43.6096H43.1906V50.7524H50.3335V43.6096H43.1906V36.4667H36.0478V29.3239H28.9049V22.181ZM36.0478 15.0382V22.181H28.9049V15.0382H36.0478ZM43.1906 7.8953V15.0382H36.0478V7.8953H43.1906ZM43.1906 7.8953V0.752441H50.3335V7.8953H43.1906Z" fill="white"/>
</svg>
