<svg width="30" height="32" viewBox="0 0 30 32" fill="none" xmlns="http://www.w3.org/2000/svg">
<g clip-path="url(#clip0_0_32072)">
<path d="M28.5942 8.93837C28.268 7.60789 27.3128 6.55885 26.1013 6.20064C23.8879 5.5354 15.0346 5.5354 15.0346 5.5354C15.0346 5.5354 6.18128 5.5354 3.96795 6.17506C2.77974 6.53326 1.80121 7.60789 1.47503 8.93837C0.892578 11.3691 0.892578 16.4096 0.892578 16.4096C0.892578 16.4096 0.892578 21.4756 1.47503 23.8807C1.80121 25.2112 2.75644 26.2603 3.96795 26.6185C6.20458 27.2837 15.0346 27.2837 15.0346 27.2837C15.0346 27.2837 23.8879 27.2837 26.1013 26.644C27.3128 26.2858 28.268 25.2368 28.5942 23.9063C29.1766 21.4756 29.1766 16.4351 29.1766 16.4351C29.1766 16.4351 29.1999 11.3691 28.5942 8.93837Z" fill="white"/>
<path d="M12.2156 21.0663L19.5778 16.4096L12.2156 11.7529V21.0663Z" fill="#00031A"/>
</g>
<defs>
<clipPath id="clip0_0_32072">
<rect width="28.2842" height="31.0618" fill="white" transform="translate(0.892578 0.876221)"/>
</clipPath>
</defs>
</svg>
