<svg width="29" height="32" viewBox="0 0 29 32" fill="none" xmlns="http://www.w3.org/2000/svg">
<g clip-path="url(#clip0_0_32063)">
<path d="M23.9301 7.58762C22.1437 6.68746 20.2281 6.02426 18.2252 5.64442C18.1887 5.63708 18.1523 5.6554 18.1335 5.69205C17.8871 6.17326 17.6142 6.80104 17.4231 7.29447C15.2689 6.94029 13.1257 6.94029 11.0156 7.29447C10.8245 6.79007 10.5416 6.17326 10.2942 5.69205C10.2754 5.65663 10.239 5.63831 10.2025 5.64442C8.20068 6.02304 6.28506 6.68624 4.49758 7.58762C4.48211 7.59494 4.46884 7.60717 4.46004 7.62304C0.826514 13.5845 -0.168861 19.3995 0.319437 25.1424C0.321646 25.1705 0.336008 25.1974 0.355894 25.2145C2.75319 27.1479 5.07538 28.3216 7.35445 29.0996C7.39093 29.1118 7.42957 29.0972 7.45278 29.0642C7.9919 28.2557 8.47247 27.4032 8.88451 26.5066C8.90883 26.4541 8.88562 26.3919 8.83592 26.3711C8.07365 26.0535 7.34782 25.6664 6.64962 25.2267C6.59439 25.1913 6.58997 25.1045 6.64078 25.063C6.7877 24.9421 6.93467 24.8163 7.07497 24.6892C7.10035 24.6661 7.13572 24.6612 7.16556 24.6758C11.7524 26.9757 16.7183 26.9757 21.251 24.6758C21.2809 24.6599 21.3162 24.6648 21.3427 24.688C21.4831 24.8151 21.63 24.9421 21.778 25.063C21.8288 25.1045 21.8255 25.1913 21.7703 25.2267C21.0721 25.6749 20.3463 26.0535 19.5829 26.3699C19.5332 26.3906 19.5111 26.4541 19.5354 26.5066C19.9563 27.4019 20.4369 28.2544 20.966 29.063C20.9881 29.0972 21.0279 29.1118 21.0644 29.0996C23.3545 28.3216 25.6766 27.1479 28.0739 25.2145C28.0949 25.1974 28.1082 25.1717 28.1104 25.1436C28.6948 18.5042 27.1316 12.7369 23.9665 7.62425C23.9588 7.60717 23.9455 7.59494 23.9301 7.58762ZM9.56949 21.6456C8.18853 21.6456 7.05065 20.2533 7.05065 18.5433C7.05065 16.8334 8.16646 15.441 9.56949 15.441C10.9835 15.441 12.1104 16.8456 12.0883 18.5433C12.0883 20.2533 10.9725 21.6456 9.56949 21.6456ZM18.8825 21.6456C17.5015 21.6456 16.3637 20.2533 16.3637 18.5433C16.3637 16.8334 17.4794 15.441 18.8825 15.441C20.2966 15.441 21.4234 16.8456 21.4013 18.5433C21.4013 20.2533 20.2966 21.6456 18.8825 21.6456Z" fill="white"/>
</g>
<defs>
<clipPath id="clip0_0_32063">
<rect width="28.2842" height="31.0618" fill="white" transform="translate(0.0751953 0.876221)"/>
</clipPath>
</defs>
</svg>
