<svg width="54" height="51" viewBox="0 0 54 51" fill="none" xmlns="http://www.w3.org/2000/svg">
<path d="M40.4708 0.660645C34.0714 12.4817 30.5357 18.3766 26.9708 18.3766C23.4058 18.3766 19.8701 12.4817 13.5 0.660645C19.8701 12.4817 22.9091 18.7197 21.1266 21.9946C19.3442 25.2696 12.7695 25.6127 0 25.6127C13.237 25.6127 19.8117 25.9558 21.3019 29.5738C22.7045 32.9423 19.6656 39.1491 13.5 50.5647C19.8993 38.7437 23.4351 32.8488 27 32.8488C30.5649 32.8488 34.1007 38.7437 40.5 50.5647C33.7208 37.9951 30.7403 31.7571 33.2532 28.6381C35.474 25.8934 42.0195 25.6127 54 25.6127C40.5 25.6127 33.9253 25.2384 32.6104 21.402C31.4123 17.9711 34.4513 11.7955 40.4708 0.660645Z" fill="white"/>
</svg>
