<svg width="29" height="32" viewBox="0 0 29 32" fill="none" xmlns="http://www.w3.org/2000/svg">
<g clip-path="url(#clip0_0_32066)">
<path d="M14.3938 0.876221C6.57527 0.876221 0.257568 7.82711 0.257568 16.4007C0.257568 22.9811 3.9807 28.6032 9.23964 30.8647C9.11165 29.6381 9.00694 27.7471 9.28616 26.4054C9.54214 25.1916 10.9383 18.6879 10.9383 18.6879C10.9383 18.6879 10.5195 17.7552 10.5195 16.388C10.5195 14.2286 11.6597 12.6186 13.0791 12.6186C14.2891 12.6186 14.8709 13.6153 14.8709 14.8036C14.8709 16.1324 14.103 18.1257 13.6958 19.9784C13.3584 21.5245 14.4055 22.7894 15.79 22.7894C18.3031 22.7894 20.2345 19.8762 20.2345 15.6852C20.2345 11.967 17.8028 9.37318 14.324 9.37318C10.2984 9.37318 7.93653 12.6825 7.93653 16.1069C7.93653 17.4357 8.40191 18.8668 8.98366 19.6462C9.10003 19.7995 9.11165 19.9401 9.07675 20.0934C8.97204 20.579 8.72769 21.6395 8.68116 21.8567C8.62298 22.1378 8.47172 22.2017 8.20412 22.0611C6.4589 21.1411 5.36524 18.3046 5.36524 16.0302C5.36524 11.1365 8.59971 6.63881 14.708 6.63881C19.6062 6.63881 23.4225 10.472 23.4225 15.6085C23.4225 20.9623 20.3509 25.2683 16.0925 25.2683C14.6614 25.2683 13.3118 24.4505 12.8581 23.4794C12.8581 23.4794 12.1483 26.4438 11.9738 27.1721C11.6597 28.5265 10.7987 30.2131 10.2169 31.2481C11.5433 31.6953 12.9395 31.9381 14.4055 31.9381C22.2124 31.9381 28.5418 24.9872 28.5418 16.4135C28.5301 7.82711 22.2008 0.876221 14.3938 0.876221Z" fill="white"/>
</g>
<defs>
<clipPath id="clip0_0_32066">
<rect width="28.2842" height="31.0618" fill="white" transform="translate(0.257568 0.876221)"/>
</clipPath>
</defs>
</svg>
