<svg width="29" height="32" viewBox="0 0 29 32" fill="none" xmlns="http://www.w3.org/2000/svg">
<g clip-path="url(#clip0_0_32069)">
<path d="M20.9708 12.0886C22.7897 13.5216 25.0179 14.3647 27.4244 14.3647V9.26088C26.969 9.26099 26.5147 9.20865 26.0691 9.1046V13.122C23.6628 13.122 21.4349 12.2789 19.6155 10.8461V21.2614C19.6155 26.4717 15.7831 30.6952 11.0559 30.6952C9.29206 30.6952 7.65264 30.1075 6.29077 29.0996C7.84512 30.8512 10.0128 31.9378 12.4109 31.9378C17.1384 31.9378 20.971 27.7143 20.971 22.5038V12.0886H20.9708ZM22.6427 6.93951C21.7132 5.82029 21.1029 4.3739 20.9708 2.77487V2.11841H19.6865C20.0098 4.15078 21.1125 5.88713 22.6427 6.93951ZM9.28075 25.1014C8.76141 24.3509 8.48076 23.4328 8.48202 22.4889C8.48202 20.1059 10.2349 18.1737 12.3976 18.1737C12.8006 18.1736 13.2012 18.2416 13.5853 18.3759V13.1581C13.1365 13.0903 12.6834 13.0615 12.2306 13.072V17.1334C11.8462 16.999 11.4454 16.9308 11.0423 16.9312C8.87964 16.9312 7.12682 18.8632 7.12682 21.2465C7.12682 22.9317 8.00299 24.3906 9.28075 25.1014Z" fill="white"/>
<path d="M19.6155 10.846C21.4348 12.2788 23.6627 13.1219 26.069 13.1219V9.1045C24.7258 8.78917 23.5367 8.01555 22.6426 6.93951C21.1123 5.88702 20.0097 4.15068 19.6864 2.11841H16.3128V22.5036C16.3052 24.8801 14.5553 26.8043 12.3973 26.8043C11.1256 26.8043 9.99586 26.1363 9.28037 25.1014C8.0027 24.3906 7.12653 22.9316 7.12653 21.2466C7.12653 18.8635 8.87936 16.9314 11.042 16.9314C11.4563 16.9314 11.8557 17.0025 12.2303 17.1335V13.0721C7.58613 13.1779 3.85107 17.3601 3.85107 22.5037C3.85107 25.0713 4.78119 27.399 6.29078 29.0997C7.65264 30.1075 9.29206 30.6953 11.0559 30.6953C15.7832 30.6953 19.6155 26.4716 19.6155 21.2614V10.846H19.6155Z" fill="white"/>
<path d="M26.069 9.10452V8.01824C24.8577 8.02026 23.6703 7.64641 22.6426 6.93942C23.5523 8.0371 24.7502 8.79398 26.069 9.10452ZM19.6864 2.11843C19.6555 1.9242 19.6319 1.72869 19.6154 1.53243V0.875977H14.9574V21.2614C14.95 23.6375 13.2001 25.5618 11.042 25.5618C10.4083 25.5618 9.81012 25.396 9.28034 25.1015C9.99583 26.1363 11.1256 26.8043 12.3972 26.8043C14.555 26.8043 16.3053 24.8802 16.3128 22.5037V2.11843H19.6864ZM12.2305 13.0722V11.9157C11.8413 11.8571 11.4489 11.8277 11.056 11.8279C6.32826 11.8278 2.49585 16.0515 2.49585 21.2614C2.49585 24.5277 4.00205 27.4062 6.29084 29.0995C4.78126 27.3989 3.85114 25.0711 3.85114 22.5036C3.85114 17.3601 7.5861 13.1779 12.2305 13.0722Z" fill="white"/>
</g>
<defs>
<clipPath id="clip0_0_32069">
<rect width="28.2842" height="31.0618" fill="white" transform="translate(0.710205 0.875977)"/>
</clipPath>
</defs>
</svg>
