<svg xmlns="http://www.w3.org/2000/svg" width="132" height="20" viewBox="0 0 132 20">
    <g fill="#C6CCDE" fill-rule="evenodd">
        <path d="M79 6.246V4.629h7.909v1.617h-2.891v8.832h-2.142V6.246H79zm12.14 8.952c-1.233 0-2.238-.392-3.013-1.176-.775-.783-1.163-1.818-1.163-3.106 0-1.287.39-2.318 1.17-3.091.78-.774 1.79-1.16 3.03-1.16 1.239 0 2.256.376 3.051 1.13.796.753 1.193 1.759 1.193 3.016 0 .29-.02.56-.06.809h-6.18c.05.539.254.973.611 1.302.357.33.81.494 1.362.494.744 0 1.295-.3 1.652-.898h2.325c-.245.788-.72 1.432-1.423 1.931-.704.5-1.555.749-2.554.749zm1.416-6.258c-.383-.33-.844-.494-1.385-.494-.54 0-.992.165-1.354.494-.362.33-.578.769-.65 1.317h4.008c-.03-.548-.237-.988-.62-1.317zm6.707-2.156v1.467c.572-1.057 1.398-1.586 2.479-1.586V8.82h-.536c-.642 0-1.127.158-1.453.472-.326.314-.49.856-.49 1.624v4.162h-2.156V6.784h2.156zm6.165 0v1.243c.54-.908 1.418-1.362 2.631-1.362.643 0 1.217.144 1.721.434.505.29.895.703 1.17 1.242a3.266 3.266 0 0 1 1.217-1.227 3.39 3.39 0 0 1 1.736-.45c1.01 0 1.823.31 2.44.929s.926 1.487.926 2.605v4.88h-2.142v-4.581c0-.649-.168-1.145-.505-1.49-.336-.344-.795-.516-1.377-.516-.581 0-1.042.172-1.384.516-.342.345-.513.841-.513 1.49v4.58h-2.141v-4.58c0-.649-.168-1.145-.505-1.49-.337-.344-.795-.516-1.377-.516-.581 0-1.043.172-1.384.516-.342.345-.513.841-.513 1.49v4.58h-2.157V6.785h2.157zm14.059 8.294V4h2.157v11.078h-2.157zm6.73-.15l-3.319-8.144h2.417l2.157 5.899 2.28-5.899H132L126.707 19h-2.249l1.76-4.072zM66 0c5.523 0 10 4.477 10 10s-4.477 10-10 10-10-4.477-10-10S60.477 0 66 0zm4 5.263h-6V15.79l5.802-7.894h-1.736L70 5.262z"/>
        <path fill-rule="nonzero" d="M1.069 13v-2.852h1.758c.758 0 1.347-.192 1.767-.578.42-.386.63-.903.63-1.55 0-.638-.21-1.153-.63-1.543-.42-.391-1.009-.586-1.767-.586H.107V13h.962zm1.758-3.604H1.069V6.647h1.758c.478 0 .837.132 1.076.396.24.264.36.592.36.986s-.12.72-.357.98c-.238.258-.598.387-1.08.387zm5.65 3.707c.728 0 1.304-.251 1.728-.752.423-.502.634-1.146.634-1.934v-.107c0-.785-.212-1.43-.637-1.934-.425-.505-1.003-.757-1.736-.757-.726 0-1.3.253-1.723.76-.424.506-.635 1.15-.635 1.93v.108c0 .784.212 1.428.637 1.931.425.503 1.002.755 1.731.755zm0-.752c-.466 0-.817-.183-1.053-.547-.236-.365-.354-.827-.354-1.387v-.107c0-.554.118-1.014.354-1.382.236-.368.583-.552 1.042-.552.463 0 .813.184 1.053.552.239.368.358.828.358 1.382v.107c0 .56-.118 1.022-.356 1.387-.238.364-.586.547-1.045.547zm5.37.649l1.006-3.218.21-.893.03-.005.219.898L16.332 13h.777l1.533-5.283h-.957l-.83 3.36-.142.712h-.029l-.151-.713-1.06-3.36h-.771l-1.055 3.36-.137.64h-.029l-.112-.64-.874-3.36h-.957L13.07 13h.776zm7.93.103c.44 0 .814-.062 1.123-.186.31-.124.558-.278.747-.464l-.376-.625a1.97 1.97 0 0 1-.637.383 2.42 2.42 0 0 1-.857.14c-.446 0-.793-.164-1.04-.491-.248-.327-.376-.745-.386-1.253l.015-.024h3.427v-.6c0-.717-.182-1.29-.546-1.72-.365-.429-.904-.644-1.617-.644-.612 0-1.141.25-1.589.75-.448.5-.671 1.125-.671 1.877v.215c0 .781.217 1.417.651 1.907.435.49 1.02.735 1.756.735zm1.055-3.272h-2.437l-.01-.024c.052-.41.192-.751.42-1.023.228-.272.503-.408.825-.408.398 0 .697.127.899.38.202.255.303.57.303.948v.127zM25.834 13V9.226a1.16 1.16 0 0 1 .403-.508c.174-.12.388-.18.642-.18l.494.028.131-.893a1.36 1.36 0 0 0-.366-.054c-.286 0-.54.077-.76.23-.219.153-.404.366-.553.64l-.093-.772h-.86V13h.962zm4.659.103c.44 0 .813-.062 1.123-.186.309-.124.558-.278.747-.464l-.376-.625a1.97 1.97 0 0 1-.637.383 2.42 2.42 0 0 1-.857.14c-.446 0-.793-.164-1.04-.491-.248-.327-.376-.745-.386-1.253l.015-.024h3.427v-.6c0-.717-.182-1.29-.547-1.72-.364-.429-.903-.644-1.616-.644-.612 0-1.142.25-1.59.75-.447.5-.67 1.125-.67 1.877v.215c0 .781.217 1.417.651 1.907.435.49 1.02.735 1.756.735zm1.054-3.272h-2.436l-.01-.024c.052-.41.192-.751.42-1.023.228-.272.503-.408.825-.408.397 0 .697.127.899.38.201.255.302.57.302.948v.127zm3.882 3.272c.332 0 .624-.064.874-.19.25-.128.462-.315.635-.562l.112.649h.786V5.383h-.961v2.905a1.686 1.686 0 0 0-.613-.498 1.892 1.892 0 0 0-.823-.17c-.654 0-1.163.26-1.526.78-.363.521-.544 1.206-.544 2.056v.103c0 .761.182 1.376.547 1.843.364.467.869.7 1.513.7zm.244-.782c-.459 0-.797-.16-1.015-.48-.218-.321-.327-.749-.327-1.282v-.103c0-.609.11-1.103.33-1.484.219-.381.56-.572 1.022-.572.277 0 .514.065.71.193.197.129.358.302.482.52v2.466a1.459 1.459 0 0 1-.479.547c-.195.13-.436.195-.723.195zm8.535.782c.642 0 1.146-.234 1.512-.701.366-.467.549-1.082.549-1.843v-.103c0-.85-.182-1.535-.547-2.056-.364-.52-.872-.78-1.523-.78-.329 0-.616.061-.862.185a1.67 1.67 0 0 0-.618.537v-2.96h-.962V13h.786l.118-.698c.169.263.382.463.64.598.256.135.56.203.907.203zm-.244-.782c-.306 0-.559-.073-.759-.22-.2-.146-.362-.35-.486-.61v-2.29c.12-.244.283-.438.486-.583.204-.145.453-.218.75-.218.455 0 .795.192 1.018.574.223.383.334.877.334 1.482v.103c0 .53-.11.957-.332 1.279-.221.322-.558.483-1.01.483zm3.858 2.813c.423 0 .76-.132 1.008-.396a2.74 2.74 0 0 0 .574-.927l2.221-6.094h-1.069l-1.299 3.99h-.029l-.17-.665-1.114-3.325H46.87l1.963 5.176-.23.551a2.84 2.84 0 0 1-.327.606.594.594 0 0 1-.503.273c-.036 0-.121-.005-.256-.014-.135-.01-.193-.013-.174-.01l-.097.757a3.104 3.104 0 0 0 .576.078z"/>
    </g>
</svg>
